<svg width="84" height="24" viewBox="0 0 84 24" fill="none" xmlns="http://www.w3.org/2000/svg">
<g clip-path="url(#clip0)">
<path d="M9.09675 3.97278V10.7425H2.92846V3.97278H0V20.1328H2.92846V13.5829H9.09675V20.1328H12.0252V3.97278H9.09675Z" fill="#33475B"/>
<path d="M21.3974 14.9091C21.3974 15.5567 21.1422 16.1779 20.6878 16.6358C20.2335 17.0938 19.6173 17.351 18.9747 17.351C18.3322 17.351 17.716 17.0938 17.2616 16.6358C16.8073 16.1779 16.552 15.5567 16.552 14.9091V7.98749H13.7742V14.9091C13.7742 16.298 14.3216 17.63 15.296 18.612C16.2703 19.5941 17.5918 20.1459 18.9697 20.1459C20.3476 20.1459 21.6691 19.5941 22.6435 18.612C23.6178 17.63 24.1652 16.298 24.1652 14.9091V7.98749H21.3974V14.9091Z" fill="#33475B"/>
<path d="M41.9786 8.70047C41.9786 7.28173 42.9098 6.83195 43.93 6.83195C44.7521 6.83195 45.8383 7.4625 46.5485 8.22755L48.3679 6.0669C47.4596 4.82894 45.6173 3.97278 44.1093 3.97278C41.0962 3.97278 38.9167 5.75163 38.9167 8.70047C38.9167 14.1715 45.5513 12.4361 45.5513 15.4977C45.5513 16.4421 44.6416 17.2765 43.6 17.2765C41.9571 17.2765 41.4248 16.4667 40.6701 15.6105L38.6513 17.7263C39.9426 19.3244 41.5352 20.1357 43.4436 20.1357C46.306 20.1357 48.6089 18.3352 48.6089 15.5208C48.6089 9.44672 41.9743 11.334 41.9743 8.70047" fill="#33475B"/>
<path d="M83.0228 17.5513C81.3814 17.5513 80.9151 16.8355 80.9151 15.7392V10.8872H83.4662V8.42859H80.9151V5.18472L78.0985 6.45884V16.3423C78.0985 18.8703 79.8289 20.1444 82.2021 20.1444C82.5743 20.1512 82.9463 20.1212 83.3127 20.0547L83.9999 17.5051C83.69 17.5268 83.3342 17.5484 83.0228 17.5484" fill="#33475B"/>
<path d="M31.9706 8.06847C30.5946 8.06847 29.6347 8.47051 28.7064 9.38886V4.06967H25.9243V13.9285C25.9243 17.6193 28.5715 20.1473 31.5459 20.1473C34.846 20.1473 37.7486 17.5745 37.7486 14.1093C37.7486 10.6876 35.077 8.06991 31.9706 8.06991V8.06847ZM31.9534 17.3257C31.3291 17.3257 30.7188 17.1391 30.1997 16.7895C29.6806 16.4399 29.276 15.943 29.0371 15.3616C28.7982 14.7802 28.7356 14.1405 28.8574 13.5233C28.9792 12.9061 29.2799 12.3392 29.7213 11.8942C30.1628 11.4493 30.7253 11.1463 31.3376 11.0235C31.9499 10.9007 32.5846 10.9637 33.1614 11.2045C33.7382 11.4454 34.2312 11.8532 34.578 12.3764C34.9249 12.8996 35.11 13.5148 35.11 14.144C35.11 14.9879 34.7774 15.7971 34.1854 16.3938C33.5935 16.9905 32.7906 17.3257 31.9534 17.3257Z" fill="#33475B"/>
<path d="M62.1792 13.9618C62.1792 10.4909 59.2823 7.92386 55.9765 7.92386C53.0021 7.92386 50.3549 10.4518 50.3549 14.1426V24.0072H53.137V18.6808C54.0639 19.5977 55.0252 20.0012 56.3997 20.0012C59.5061 20.0012 62.1778 17.385 62.1778 13.9618H62.1792ZM59.5449 13.9271C59.5449 14.5564 59.3597 15.1715 59.0129 15.6948C58.666 16.218 58.173 16.6258 57.5962 16.8666C57.0194 17.1074 56.3848 17.1704 55.7724 17.0477C55.1601 16.9249 54.5977 16.6219 54.1562 16.1769C53.7148 15.7319 53.4141 15.165 53.2923 14.5478C53.1705 13.9306 53.233 13.2909 53.4719 12.7095C53.7109 12.1282 54.1155 11.6312 54.6346 11.2816C55.1537 10.932 55.7639 10.7454 56.3883 10.7454C57.2254 10.7454 58.0283 11.0806 58.6203 11.6773C59.2123 12.274 59.5449 13.0833 59.5449 13.9271Z" fill="#33475B"/>
<path d="M71.167 7.7879V4.97066C71.5364 4.7967 71.8492 4.52057 72.0689 4.17442C72.2886 3.82826 72.4063 3.42631 72.4082 3.01538V2.9503C72.4082 2.37496 72.1814 1.82318 71.7778 1.41635C71.3742 1.00952 70.8267 0.780969 70.2559 0.780969H70.1914C69.6206 0.780969 69.0731 1.00952 68.6695 1.41635C68.2659 1.82318 68.0391 2.37496 68.0391 2.9503V3.01538C68.041 3.42631 68.1587 3.82826 68.3784 4.17442C68.5981 4.52057 68.9109 4.7967 69.2803 4.97066V7.7879C68.2186 7.9516 67.2188 8.39513 66.3819 9.07359L58.7171 3.05587C58.7714 2.85743 58.8003 2.65283 58.8032 2.44701C58.8041 1.96355 58.6627 1.4907 58.3968 1.08826C58.131 0.685821 57.7528 0.371877 57.31 0.186138C56.8671 0.000399539 56.3796 -0.0487899 55.909 0.0447919C55.4384 0.138374 55.006 0.370522 54.6663 0.711874C54.3266 1.05323 54.095 1.48845 54.0008 1.96248C53.9066 2.43652 53.9539 2.92808 54.1369 3.37499C54.3198 3.82189 54.6302 4.20407 55.0287 4.47317C55.4272 4.74227 55.8959 4.88621 56.3755 4.88678C56.7949 4.88489 57.2065 4.7722 57.5693 4.55994L65.1179 10.4793C64.4396 11.5119 64.0857 12.7265 64.1023 13.9647C64.119 15.203 64.5054 16.4075 65.2111 17.4212L62.9154 19.7351C62.7298 19.6754 62.5363 19.6437 62.3415 19.6411C61.9477 19.6414 61.5629 19.7593 61.2356 19.98C60.9083 20.2007 60.6533 20.5142 60.5027 20.8809C60.3522 21.2477 60.3128 21.6512 60.3897 22.0404C60.4666 22.4297 60.6563 22.7872 60.9347 23.0679C61.2131 23.3485 61.5679 23.5397 61.954 23.6172C62.3402 23.6947 62.7405 23.655 63.1044 23.5033C63.4682 23.3515 63.7793 23.0945 63.9982 22.7646C64.2171 22.4347 64.3342 22.0468 64.3344 21.6499C64.332 21.4535 64.3005 21.2585 64.2412 21.0714L66.5125 18.7821C67.2531 19.3565 68.1144 19.7525 69.0303 19.9397C69.9462 20.1269 70.8924 20.1003 71.7965 19.862C72.7007 19.6236 73.5387 19.1799 74.2464 18.5647C74.9541 17.9496 75.5128 17.1793 75.8796 16.3129C76.2464 15.4466 76.4116 14.5071 76.3625 13.5664C76.3135 12.6257 76.0515 11.7089 75.5966 10.886C75.1418 10.0632 74.5061 9.35617 73.7383 8.81916C72.9705 8.28216 72.091 7.92939 71.167 7.7879ZM70.2258 17.0524C69.6045 17.0518 68.9973 16.8656 68.481 16.5173C67.9647 16.169 67.5624 15.6742 67.3249 15.0955C67.0875 14.5168 67.0256 13.8802 67.147 13.266C67.2685 12.6519 67.5679 12.0878 68.0073 11.6451C68.4467 11.2024 69.0065 10.9009 69.6158 10.7788C70.2252 10.6566 70.8568 10.7193 71.4308 10.9589C72.0049 11.1985 72.4955 11.6042 72.8409 12.1248C73.1862 12.6454 73.3706 13.2575 73.3709 13.8837C73.3709 14.7237 73.0399 15.5293 72.4506 16.1233C71.8613 16.7172 71.062 17.0509 70.2287 17.0509" fill="#FF7A59"/>
</g>
<defs>
<clipPath id="clip0">
<rect width="84" height="24" fill="white"/>
</clipPath>
</defs>
</svg>
